<?xml version="1.0" ?><svg id="Layer_1" style="enable-background:new 0 0 512 512;" version="1.1" viewBox="0 0 512 512" xml:space="preserve" xmlns="http://www.w3.org/2000/svg" xmlns:xlink="http://www.w3.org/1999/xlink"><style type="text/css">
	.st0{fill:#2BB673;}
	.st1{fill:#FFFFFF;}
</style><path class="st0" d="M489,255.9c0-0.2,0-0.5,0-0.7c0-1.6,0-3.2-0.1-4.7c0-0.9-0.1-1.8-0.1-2.8  c0-0.9-0.1-1.8-0.1-2.7c-0.1-1.1-0.1-2.2-0.2-3.3c0-0.7-0.1-1.4-0.1-2.1c-0.1-1.2-0.2-2.4-0.3-3.6c0-0.5-0.1-1.1-0.1-1.6  c-0.1-1.3-0.3-2.6-0.4-4c0-0.3-0.1-0.7-0.1-1C474.3,113.2,375.7,22.9,256,22.9S37.7,113.2,24.5,229.5c0,0.3-0.1,0.7-0.1,1  c-0.1,1.3-0.3,2.6-0.4,4c-0.1,0.5-0.1,1.1-0.1,1.6c-0.1,1.2-0.2,2.4-0.3,3.6c0,0.7-0.1,1.4-0.1,2.1c-0.1,1.1-0.1,2.2-0.2,3.3  c0,0.9-0.1,1.8-0.1,2.7c0,0.9-0.1,1.8-0.1,2.8c0,1.6-0.1,3.2-0.1,4.7c0,0.2,0,0.5,0,0.7c0,0,0,0,0,0.1s0,0,0,0.1c0,0.2,0,0.5,0,0.7  c0,1.6,0,3.2,0.1,4.7c0,0.9,0.1,1.8,0.1,2.8c0,0.9,0.1,1.8,0.1,2.7c0.1,1.1,0.1,2.2,0.2,3.3c0,0.7,0.1,1.4,0.1,2.1  c0.1,1.2,0.2,2.4,0.3,3.6c0,0.5,0.1,1.1,0.1,1.6c0.1,1.3,0.3,2.6,0.4,4c0,0.3,0.1,0.7,0.1,1C37.7,398.8,136.3,489.1,256,489.1  s218.3-90.3,231.5-206.5c0-0.3,0.1-0.7,0.1-1c0.1-1.3,0.3-2.6,0.4-4c0.1-0.5,0.1-1.1,0.1-1.6c0.1-1.2,0.2-2.4,0.3-3.6  c0-0.7,0.1-1.4,0.1-2.1c0.1-1.1,0.1-2.2,0.2-3.3c0-0.9,0.1-1.8,0.1-2.7c0-0.9,0.1-1.8,0.1-2.8c0-1.6,0.1-3.2,0.1-4.7  c0-0.2,0-0.5,0-0.7C489,256,489,256,489,255.9C489,256,489,256,489,255.9z" id="XMLID_322_"/><circle class="st1" cx="256" cy="256" id="XMLID_321_" r="159.5"/><path class="st0" d="M269.2,197.3c0.2,7.3-5.1,13.2-13.7,13.2c-7.6,0-12.9-5.9-12.9-13.2c0-7.6,5.6-13.4,13.4-13.4  C264.1,183.9,269.2,189.8,269.2,197.3z" id="XMLID_93_"/><polygon class="st0" id="XMLID_92_" points="245.3,332.6 245.3,232.3 266.7,233 266.7,332.6 "/></svg>