<?xml version="1.0" ?><svg height="32px" version="1.1" viewBox="0 0 32 32" width="32px" xmlns="http://www.w3.org/2000/svg" xmlns:sketch="http://www.bohemiancoding.com/sketch/ns" xmlns:xlink="http://www.w3.org/1999/xlink"><title/><desc/><defs/><g fill="none" fill-rule="evenodd" id="Page-1" stroke="none" stroke-width="1"><g fill="#157EFB" id="icon-6-mail-envelope-closed"><path d="M25.9230769,21.0769231 L20,16 L25.9230769,10.9230769 L25.9230769,10.9230769 L25.1153846,10.1153846 L16.5,17.5 L7.88461538,10.1153846 L7.07692308,10.9230769 L7.07692308,10.9230769 L13,16 L7.07692308,21.0769231 L7.07692308,21.0769231 L7.88461538,21.8846154 L13.875,16.75 L16.5,19 L19.125,16.75 L25.1153846,21.8846154 L25.9230769,21.0769231 L25.9230769,21.0769231 Z M6.00359486,8 C4.89703997,8 4,8.89451376 4,9.99406028 L4,22.0059397 C4,23.1072288 4.88976324,24 6.00359486,24 L26.9964051,24 C28.10296,24 29,23.1054862 29,22.0059397 L29,9.99406028 C29,8.8927712 28.1102368,8 26.9964051,8 L6.00359486,8 L6.00359486,8 Z" id="mail-envelope-closed"/></g></g></svg>