<?xml version="1.0" ?><svg data-name="Layer 1" id="Layer_1" viewBox="0 0 79.93488 73.60962" xmlns="http://www.w3.org/2000/svg"><defs><style>.cls-1{fill:none;}</style></defs><title/><path class="cls-1" d="M48.93152,53.3869a7.22579,7.22579,0,0,1,5.79309.58167L67.79645,35.5592a7.29029,7.29029,0,0,1-.80829-.8244L46.63336,48.21057Z" transform="translate(-8.24011 -11.48279)"/><path class="cls-1" d="M43.9118,60.28717A7.24645,7.24645,0,0,1,47.549,54.00482l-2.196-4.94653L21.55511,64.81348a7.22657,7.22657,0,0,1,.77637,1.57415L43.979,61.22357A7.2889,7.2889,0,0,1,43.9118,60.28717Z" transform="translate(-8.24011 -11.48279)"/><path class="cls-1" d="M69.02893,36.43921l-13.072,18.40924a7.21687,7.21687,0,0,1,1.96588,8.06775L74.91486,73.767a7.26312,7.26312,0,0,1,4.01892-2.90222L73.08105,37.3504c-.16406.01111-.32745.025-.49432.025A7.21484,7.21484,0,0,1,69.02893,36.43921Z" transform="translate(-8.24011 -11.48279)"/><path class="cls-1" d="M36.33752,25.02014l9.67279,21.78711L66.15546,33.4707a7.12356,7.12356,0,0,1-.70838-4.60144L39.44714,21.4458A7.27237,7.27237,0,0,1,36.33752,25.02014Z" transform="translate(-8.24011 -11.48279)"/><path class="cls-1" d="M57.22784,64.26892a7.24685,7.24685,0,0,1-12.89776-1.57269L22.68274,67.86066a7.28783,7.28783,0,0,1,.06714.93628c0,.07995-.0094.15747-.012.23675l51.14532,7.067a7.19827,7.19827,0,0,1,.31769-.99311Z" transform="translate(-8.24011 -11.48279)"/><path class="cls-1" d="M44.72992,47.65491l-9.77454-22.017a7.13585,7.13585,0,0,1-4.03027.1217L17.55127,61.84222a7.24616,7.24616,0,0,1,3.03937,1.79346Z" transform="translate(-8.24011 -11.48279)"/><path d="M80.9201,70.58264c-.16687,0-.3302.01386-.49426.025L74.573,37.0932a7.25223,7.25223,0,1,0-8.71344-9.68066L39.85968,19.989A7.25213,7.25213,0,1,0,29.505,25.23407L16.03809,61.56952c-.17994-.01337-.35975-.02747-.54309-.02747a7.25489,7.25489,0,1,0,7.037,8.99121l51.14521,7.06763c-.00257.07929-.012.15674-.012.23663a7.25489,7.25489,0,1,0,7.25488-7.25488Zm0,12.99567a5.74082,5.74082,0,1,1,5.74079-5.74079A5.74732,5.74732,0,0,1,80.9201,83.57831Zm-1.98632-12.7135A7.26312,7.26312,0,0,0,74.91486,73.767L57.92279,62.9162a7.21687,7.21687,0,0,0-1.96588-8.06775l13.072-18.40924a7.21484,7.21484,0,0,0,3.5578.93616c.16687,0,.33026-.01386.49432-.025ZM9.75421,68.79694A5.74082,5.74082,0,1,1,15.495,74.53772,5.74732,5.74732,0,0,1,9.75421,68.79694Zm11.8009-3.98346L45.353,49.05829l2.196,4.94653a7.16861,7.16861,0,0,0-3.57,7.21875L22.33148,66.38763A7.22657,7.22657,0,0,0,21.55511,64.81348ZM72.58673,24.37964A5.74085,5.74085,0,1,1,66.846,30.12048,5.74733,5.74733,0,0,1,72.58673,24.37964ZM67.79645,35.5592,54.72461,53.96857a7.22579,7.22579,0,0,0-5.79309-.58167l-2.29816-5.17633L66.98816,34.7348A7.29029,7.29029,0,0,0,67.79645,35.5592ZM51.16669,66.028a5.74081,5.74081,0,1,1,5.74078-5.74078A5.74731,5.74731,0,0,1,51.16669,66.028ZM65.44708,28.86926a7.12356,7.12356,0,0,0,.70838,4.60144L46.01031,46.80725,36.33752,25.02014a7.27237,7.27237,0,0,0,3.10962-3.57434ZM32.72,12.99683a5.74081,5.74081,0,1,1-5.74084,5.74084A5.74732,5.74732,0,0,1,32.72,12.99683ZM30.92511,25.75958a7.13585,7.13585,0,0,0,4.03027-.1217l9.77454,22.017L20.59064,63.63568a7.24616,7.24616,0,0,0-3.03937-1.79346ZM22.73792,69.03369c.00256-.07928.012-.1568.012-.23675a7.28783,7.28783,0,0,0-.06714-.93628l21.64734-5.16443a7.24685,7.24685,0,0,0,12.89776,1.57269L74.20093,75.1076a7.19827,7.19827,0,0,0-.31769.99311Z" transform="translate(-8.24011 -11.48279)"/></svg>