<?xml version="1.0" ?><svg style="enable-background:new 0 0 512 512;" version="1.1" viewBox="0 0 512 512" xml:space="preserve" xmlns="http://www.w3.org/2000/svg" xmlns:xlink="http://www.w3.org/1999/xlink"><g id="outerdark"><path d="M256.5,20C126.4,20,21,125.4,21,255.5S126.4,491,256.5,491S492,385.6,492,255.5S386.6,20,256.5,20z M256,460.5   c-112.9,0-204.5-91.6-204.5-204.5S143.1,51.5,256,51.5S460.5,143.1,460.5,256S368.9,460.5,256,460.5z"/></g><g id="outerlight"><path d="M423.1,89l-22.4,22.4c37,37,59.8,88.1,59.8,144.6c0,112.9-91.6,204.5-204.5,204.5   c-56.4,0-107.6-22.9-144.6-59.8L90,422.1c92,92,241.1,92,333,0S515,181,423.1,89z" style="opacity:0.2;fill:#FFFFFF;"/></g><g id="innerdark"><circle cx="256" cy="256" r="180"/></g><g id="Myspace"><g id="WUqZDl_1_"><g><path d="M356.3,225.7c0,18.3-14.8,32.9-33.2,32.8c-18.4-0.1-32.9-14.8-32.8-33.1c0.1-18.2,15-33,33.2-32.8     C341.9,192.6,356.4,207.3,356.3,225.7z" style="fill:#E6E7E8;"/><path d="M323.4,319.5c-10.2,0-20.5,0-30.7,0c-4.7,0-5.6-1-5.6-5.6c0.1-8.2-0.7-16.4,2.5-24.4     c6.6-16.3,23.2-26.3,39.3-23.3c17.6,3.2,30.6,18.4,30.9,36.1c0.1,3.4,0,6.8,0,10.2c0,6.4-0.5,6.9-7.1,6.9     C342.9,319.5,333.1,319.5,323.4,319.5z" style="fill:#E6E7E8;"/><path d="M248.9,264.5c-16.4,0-29.8-13.4-29.7-29.6c0.1-16.5,13.5-29.7,30.1-29.7     c16.4,0,29.6,13.3,29.5,29.7C278.8,251.6,265.7,264.5,248.9,264.5z" style="fill:#E6E7E8;"/><path d="M249,319.3c-9.3,0-18.6,0-27.9,0c-4.1,0-4.7-0.7-4.7-4.7c0-7.6-0.6-15.3,2.5-22.6     c6.2-14.7,21-23.1,36.1-20.3c14.9,2.7,26.4,16.7,26.9,32.5c0.1,3.6,0,7.3,0,10.9c0,3-1.3,4.2-4.3,4.2     C268,319.2,258.5,319.3,249,319.3z" style="fill:#E6E7E8;"/><path d="M208.5,243.5c0,14.8-11.9,26.5-26.8,26.5c-14.8,0-26.8-11.9-26.8-26.7c0-14.7,12-26.7,26.7-26.8     C196.4,216.4,208.5,228.5,208.5,243.5z" style="fill:#E6E7E8;"/><path d="M181.8,319.3c-8.2,0-16.5,0-24.7,0c-4.4,0-4.8-0.4-4.8-4.9c0-7.2-0.4-14.3,2.9-21.1     c6.2-12.7,19.2-19.5,32.6-16.7c12.9,2.7,23.1,15.2,23.4,28.8c0.1,3.2-0.1,6.4,0,9.5c0.2,3.2-1.1,4.4-4.3,4.4     C198.5,319.2,190.1,319.3,181.8,319.3z" style="fill:#E6E7E8;"/></g></g></g><g id="innerlight"><path d="M128.1,382.6c-70.3-70.3-70.3-184.3,0-254.6s184.3-70.3,254.6,0" style="opacity:0.2;fill:#FFFFFF;"/><g/><g/><g/><g/><g/><g/></g></svg>