<?xml version="1.0" ?><!DOCTYPE svg  PUBLIC '-//W3C//DTD SVG 1.1//EN'  'http://www.w3.org/Graphics/SVG/1.1/DTD/svg11.dtd'><svg enable-background="new 0 0 64 64" id="Layer_1" version="1.1" viewBox="0 0 64 64" xml:space="preserve" xmlns="http://www.w3.org/2000/svg" xmlns:xlink="http://www.w3.org/1999/xlink"><circle cx="32" cy="32" fill="#FFD766" r="24"/><path d="M48.7,38.2C46,44.8,39.6,49.5,32,49.5c-7.6,0-14.1-4.7-16.7-11.4L48.7,38.2z" fill="#4B687F"/><path d="M25.5,48.2c2,0.8,4.2,1.2,6.6,1.2c2.3,0,4.5-0.4,6.5-1.2c0-3.6-2.9-6.5-6.5-6.5  C28.4,41.8,25.5,44.7,25.5,48.2z" fill="#EA685E"/><path d="  M48.7,38.2C46,44.8,39.6,49.5,32,49.5c-7.6,0-14.1-4.7-16.7-11.4L48.7,38.2z" fill="none" stroke="#2C3E50" stroke-linecap="round" stroke-linejoin="round" stroke-miterlimit="10" stroke-width="2"/><circle cx="41" cy="25.2" fill="#FFFFFF" r="3.8"/><circle cx="23" cy="25.2" fill="#FFFFFF" r="3.8"/><circle cx="41" cy="25.2" fill="none" r="3.8" stroke="#2C3E50" stroke-linecap="round" stroke-linejoin="round" stroke-miterlimit="10" stroke-width="2"/><circle cx="23" cy="25.2" fill="none" r="3.8" stroke="#2C3E50" stroke-linecap="round" stroke-linejoin="round" stroke-miterlimit="10" stroke-width="2"/><circle cx="32" cy="32" fill="none" r="24" stroke="#2C3E50" stroke-linecap="round" stroke-linejoin="round" stroke-miterlimit="10" stroke-width="2"/></svg>