<?xml version="1.0" ?><svg id="Layer_1" style="enable-background:new 0 0 64 64;" version="1.1" viewBox="0 0 64 64" xml:space="preserve" xmlns="http://www.w3.org/2000/svg" xmlns:xlink="http://www.w3.org/1999/xlink"><style type="text/css">
	.st0{fill:#62BEE7;}
	.st1{fill:#474E5E;}
	.st2{fill:#F3EEE4;}
	.st3{fill:#FFFFFF;}
	.st4{fill:#E8DCCA;}
	.st5{opacity:0.1;fill:#231F20;}
	.st6{fill:#506268;}
	.st7{fill:#EB5151;}
	.st8{fill:#C64444;}
	.st9{fill:#9CCB5B;}
	.st10{fill:#404A4C;}
	.st11{fill:#676767;}
	.st12{fill:#E0E1E5;}
	.st13{fill:#9D9EA0;}
	.st14{fill:#B3B4B7;}
	.st15{opacity:0.1;}
	.st16{fill:#231F20;}
	.st17{fill:#FACC20;}
	.st18{fill:#FDEF34;}
	.st19{fill:#F7A90B;}
	.st20{fill:#20B8EA;}
	.st21{fill:#00A8EA;}
	.st22{fill:#33D3F4;}
	.st23{opacity:0.25;fill:#FFFFFF;}
	.st24{fill:#CACBCE;}
	.st25{fill:#2E3545;}
	.st26{fill:#8DAF4A;}
	.st27{fill:#F9C2AF;}
	.st28{fill:#AFDDF4;}
	.st29{fill:#677177;}
	.st30{fill:#FFEDB3;}
	.st31{fill:#695652;}
	.st32{fill:#30A7BF;}
	.st33{fill:#4D5556;}
	.st34{opacity:0.35;}
	.st35{fill:#FFCB04;}
	.st36{fill:#99E9FA;}
	.st37{opacity:0.2;}
	.st38{opacity:3.000000e-02;}
	.st39{fill:#9ECA5B;}
	.st40{fill:#98BA56;}
	.st41{fill:#40EEFF;}
	.st42{fill:#FF6A52;}
	.st43{opacity:0.1;fill:#FFFFFF;}
	.st44{opacity:0.4;}
	.st45{fill:#57606D;}
	.st46{fill:#BACA5B;}
	.st47{opacity:0.25;}
	.st48{opacity:5.000000e-02;fill:#231F20;}
	.st49{opacity:0.2;fill:#FFFFFF;}
	.st50{opacity:0.3;}
	.st51{fill:#FFD82F;}
	.st52{fill:#F4C121;}
	.st53{fill:#EF9D0A;}
	.st54{fill:#F9E532;}
	.st55{fill:#F4C01E;}
	.st56{fill:#FFE14D;}
	.st57{fill:#B7C156;}
	.st58{fill:#DBA92C;}
	.st59{fill:#363D4D;}
	.st60{fill:#3F4656;}
	.st61{fill:#463E33;}
	.st62{fill:none;}
	.st63{opacity:4.000000e-02;}
	.st64{fill:#4DB6AC;}
	.st65{fill:#CADE49;}
	.st66{fill:#9FD343;}
	.st67{fill:#AAD643;}
	.st68{fill:#82C736;}
	.st69{opacity:0.3;fill:#FFFFFF;}
	.st70{fill:#FFD640;}
	.st71{opacity:0.5;}
	.st72{opacity:0.6;}
</style><g><circle class="st9" cx="32" cy="32" r="32"/><g><path class="st3" d="M44.4,16.9c0-4.5-5.2-7.8-12.4-7.8s-12.4,3.3-12.4,7.8l3.1,0c0-2.6,4.2-4.7,9.3-4.7s9.3,2.1,9.3,4.7    L44.4,16.9z"/><rect class="st30" height="4.7" width="6.2" x="28.9" y="37"/><rect class="st24" height="4.7" width="6.2" x="28.9" y="37"/><rect class="st12" height="2.3" width="6.2" x="28.9" y="37"/><path class="st25" d="M47.7,39.3H35.1v2.3h-6.2v-2.3H16.3c0-4-2.9-7.4-6.7-8.1v17.7c0,1.1,0.9,2.1,2.1,2.1h40.8    c1.1,0,2.1-0.9,2.1-2.1V31.2C50.6,31.9,47.7,35.2,47.7,39.3z"/><path class="st1" d="M51.9,16.8H12.1C9.9,16.8,8,18.7,8,21v10c4.6,0,8.3,3.7,8.3,8.3h12.6V37h6.2v2.3h12.6c0-4.6,3.7-8.3,8.3-8.3    V21C56,18.7,54.1,16.8,51.9,16.8z"/><g><g><path class="st11" d="M37,38.1h-0.6c-0.1,0-0.1,0-0.1-0.1v-0.6c0-0.1,0-0.1,0.1-0.1c0.1,0,0.1,0,0.1,0.1v0.5H37      C37,37.9,37.1,38,37,38.1C37.1,38.1,37,38.1,37,38.1z"/></g><g><path class="st11" d="M36.4,36.4C36.3,36.4,36.3,36.4,36.4,36.4l-0.1-0.6h-0.5c-0.1,0-0.1,0-0.1-0.1s0-0.1,0.1-0.1h0.6      c0.1,0,0.1,0,0.1,0.1L36.4,36.4C36.5,36.4,36.4,36.4,36.4,36.4z"/></g><g><path class="st11" d="M34.2,35.8h-1.5c-0.1,0-0.1,0-0.1-0.1s0-0.1,0.1-0.1h1.5C34.3,35.6,34.3,35.6,34.2,35.8      C34.3,35.7,34.3,35.8,34.2,35.8z M31.3,35.8h-1.5c-0.1,0-0.1,0-0.1-0.1s0-0.1,0.1-0.1h1.5C31.3,35.6,31.3,35.6,31.3,35.8      C31.3,35.7,31.3,35.8,31.3,35.8z"/></g><g><path class="st11" d="M27.6,36.4C27.6,36.4,27.5,36.4,27.6,36.4l-0.1-0.7c0-0.1,0-0.1,0.1-0.1h0.6c0.1,0,0.1,0,0.1,0.1      s0,0.1-0.1,0.1h-0.5L27.6,36.4C27.7,36.4,27.7,36.4,27.6,36.4z"/></g><g><path class="st11" d="M27.6,38.1H27c-0.1,0-0.1,0-0.1-0.1c0-0.1,0-0.1,0.1-0.1h0.5v-0.5c0-0.1,0-0.1,0.1-0.1      c0.1,0,0.1,0,0.1,0.1L27.6,38.1C27.7,38.1,27.7,38.1,27.6,38.1z"/></g><g><path class="st11" d="M25.7,38.1h-1.3c-0.1,0-0.1,0-0.1-0.1c0-0.1,0-0.1,0.1-0.1h1.3C25.8,37.9,25.8,38,25.7,38.1      C25.8,38.1,25.8,38.1,25.7,38.1z M23.2,38.1h-1.3c-0.1,0-0.1,0-0.1-0.1c0-0.1,0-0.1,0.1-0.1h1.3C23.2,37.9,23.3,38,23.2,38.1      C23.3,38.1,23.2,38.1,23.2,38.1z M20.6,38.1h-1.3c-0.1,0-0.1,0-0.1-0.1c0-0.1,0-0.1,0.1-0.1h1.3C20.7,37.9,20.7,38,20.6,38.1      C20.7,38.1,20.7,38.1,20.6,38.1z"/></g><g><path class="st11" d="M18.1,38.1h-0.6c0,0-0.1,0-0.1-0.1c0-0.2-0.1-0.4-0.1-0.6c0-0.1,0-0.1,0.1-0.1c0.1,0,0.1,0,0.1,0.1      c0,0.2,0.1,0.4,0.1,0.5h0.5C18.1,37.9,18.2,38,18.1,38.1C18.2,38.1,18.1,38.1,18.1,38.1z"/></g><g><path class="st11" d="M17,36.3C17,36.3,17,36.3,17,36.3c-0.2-0.5-0.4-0.8-0.6-1.2c0,0,0-0.1,0-0.1c0,0,0.1,0,0.1,0      c0.2,0.4,0.3,0.8,0.5,1.2C17.1,36.2,17.1,36.3,17,36.3C17,36.3,17,36.3,17,36.3z M15.9,34.1C15.9,34.1,15.9,34.1,15.9,34.1      c-0.3-0.4-0.6-0.7-0.8-1c0,0,0-0.1,0-0.1c0,0,0.1,0,0.1,0c0.3,0.3,0.5,0.6,0.8,1C16,34,16,34,15.9,34.1      C16,34.1,15.9,34.1,15.9,34.1z M14.3,32.2C14.3,32.2,14.2,32.2,14.3,32.2c-0.4-0.3-0.7-0.5-1-0.8c0,0-0.1-0.1,0-0.1      c0,0,0.1-0.1,0.1,0c0.3,0.2,0.7,0.5,1,0.8C14.4,32.1,14.4,32.1,14.3,32.2C14.3,32.2,14.3,32.2,14.3,32.2z M12.2,30.8      C12.2,30.8,12.2,30.8,12.2,30.8c-0.4-0.2-0.8-0.4-1.2-0.5c0,0-0.1-0.1-0.1-0.1c0,0,0.1-0.1,0.1-0.1c0.4,0.1,0.8,0.3,1.2,0.5      C12.3,30.7,12.3,30.7,12.2,30.8C12.3,30.8,12.3,30.8,12.2,30.8z"/></g><g><path class="st11" d="M9.9,30C9.9,30,9.9,30,9.9,30c-0.2,0-0.4-0.1-0.6-0.1c0,0-0.1,0-0.1-0.1v-0.6c0-0.1,0-0.1,0.1-0.1      c0.1,0,0.1,0,0.1,0.1v0.5c0.2,0,0.4,0.1,0.5,0.1C10,29.8,10,29.9,9.9,30C10,30,9.9,30,9.9,30z"/></g><g><path class="st11" d="M9.3,28C9.2,28,9.2,28,9.3,28l-0.1-1.4c0-0.1,0-0.1,0.1-0.1c0.1,0,0.1,0,0.1,0.1L9.3,28      C9.4,28,9.3,28,9.3,28z M54.7,28C54.7,28,54.6,28,54.7,28l-0.1-1.4c0-0.1,0-0.1,0.1-0.1s0.1,0,0.1,0.1L54.7,28      C54.8,28,54.8,28,54.7,28z M9.3,25.5C9.2,25.5,9.2,25.4,9.3,25.5l-0.1-1.4c0-0.1,0-0.1,0.1-0.1c0.1,0,0.1,0,0.1,0.1L9.3,25.5      C9.4,25.4,9.3,25.5,9.3,25.5z M54.7,25.4C54.7,25.4,54.6,25.4,54.7,25.4l-0.1-1.4c0-0.1,0-0.1,0.1-0.1s0.1,0,0.1,0.1L54.7,25.4      C54.8,25.4,54.8,25.4,54.7,25.4z M9.3,22.9C9.2,22.9,9.2,22.9,9.3,22.9l-0.1-1.4c0-0.1,0-0.1,0.1-0.1c0.1,0,0.1,0,0.1,0.1      L9.3,22.9C9.4,22.9,9.3,22.9,9.3,22.9z M54.7,22.9C54.7,22.9,54.6,22.8,54.7,22.9l-0.1-1.4c0-0.1,0-0.1,0.1-0.1s0.1,0,0.1,0.1      L54.7,22.9C54.8,22.8,54.8,22.9,54.7,22.9z M9.4,20.4C9.3,20.4,9.3,20.4,9.4,20.4c-0.1,0-0.1-0.1-0.1-0.1      c0.1-0.4,0.3-0.8,0.6-1.2c0,0,0.1,0,0.1,0c0,0,0,0.1,0,0.1C9.7,19.5,9.5,19.9,9.4,20.4C9.4,20.3,9.4,20.4,9.4,20.4z M54.6,20.3      C54.6,20.3,54.6,20.3,54.6,20.3c-0.2-0.5-0.4-0.8-0.7-1.2c0,0,0-0.1,0-0.1c0,0,0.1,0,0.1,0c0.3,0.3,0.5,0.7,0.6,1.2      C54.7,20.3,54.7,20.3,54.6,20.3C54.7,20.3,54.6,20.3,54.6,20.3z M10.9,18.5C10.9,18.5,10.9,18.4,10.9,18.5      c-0.1-0.1-0.1-0.2,0-0.2c0.4-0.2,0.8-0.3,1.2-0.3h0c0.1,0,0.1,0,0.1,0.1c0,0.1,0,0.1-0.1,0.1h0C11.7,18.2,11.3,18.3,10.9,18.5      C11,18.5,11,18.5,10.9,18.5z M53,18.5C53,18.5,53,18.4,53,18.5c-0.4-0.2-0.8-0.3-1.2-0.3h-0.1c-0.1,0-0.1,0-0.1-0.1      c0-0.1,0-0.1,0.1-0.1h0.1c0.4,0,0.8,0.1,1.2,0.3C53.1,18.3,53.1,18.3,53,18.5C53.1,18.4,53.1,18.5,53,18.5z M50.5,18.2h-1.3      c-0.1,0-0.1,0-0.1-0.1c0-0.1,0-0.1,0.1-0.1h1.3C50.6,18,50.6,18.1,50.5,18.2C50.6,18.2,50.6,18.2,50.5,18.2z M48,18.2h-1.3      c-0.1,0-0.1,0-0.1-0.1c0-0.1,0-0.1,0.1-0.1H48C48,18,48.1,18.1,48,18.2C48.1,18.2,48,18.2,48,18.2z M45.4,18.2h-1.3      c-0.1,0-0.1,0-0.1-0.1c0-0.1,0-0.1,0.1-0.1h1.3C45.5,18,45.5,18.1,45.4,18.2C45.5,18.2,45.5,18.2,45.4,18.2z M42.9,18.2h-1.3      c-0.1,0-0.1,0-0.1-0.1c0-0.1,0-0.1,0.1-0.1h1.3C42.9,18,42.9,18.1,42.9,18.2C42.9,18.2,42.9,18.2,42.9,18.2z M40.3,18.2H39      c-0.1,0-0.1,0-0.1-0.1c0-0.1,0-0.1,0.1-0.1h1.3C40.4,18,40.4,18.1,40.3,18.2C40.4,18.2,40.4,18.2,40.3,18.2z M37.7,18.2h-1.3      c-0.1,0-0.1,0-0.1-0.1c0-0.1,0-0.1,0.1-0.1h1.3C37.8,18,37.8,18.1,37.7,18.2C37.8,18.2,37.8,18.2,37.7,18.2z M35.2,18.2h-1.3      c-0.1,0-0.1,0-0.1-0.1c0-0.1,0-0.1,0.1-0.1h1.3C35.2,18,35.3,18.1,35.2,18.2C35.3,18.2,35.2,18.2,35.2,18.2z M32.6,18.2h-1.3      c-0.1,0-0.1,0-0.1-0.1c0-0.1,0-0.1,0.1-0.1h1.3C32.7,18,32.7,18.1,32.6,18.2C32.7,18.2,32.7,18.2,32.6,18.2z M30.1,18.2h-1.3      c-0.1,0-0.1,0-0.1-0.1c0-0.1,0-0.1,0.1-0.1h1.3C30.1,18,30.2,18.1,30.1,18.2C30.2,18.2,30.1,18.2,30.1,18.2z M27.5,18.2h-1.3      c-0.1,0-0.1,0-0.1-0.1c0-0.1,0-0.1,0.1-0.1h1.3C27.6,18,27.6,18.1,27.5,18.2C27.6,18.2,27.6,18.2,27.5,18.2z M25,18.2h-1.3      c-0.1,0-0.1,0-0.1-0.1c0-0.1,0-0.1,0.1-0.1H25C25,18,25.1,18.1,25,18.2C25.1,18.2,25,18.2,25,18.2z M22.4,18.2h-1.3      c-0.1,0-0.1,0-0.1-0.1c0-0.1,0-0.1,0.1-0.1h1.3C22.5,18,22.5,18.1,22.4,18.2C22.5,18.2,22.5,18.2,22.4,18.2z M19.9,18.2h-1.3      c-0.1,0-0.1,0-0.1-0.1c0-0.1,0-0.1,0.1-0.1h1.3C19.9,18,19.9,18.1,19.9,18.2C19.9,18.2,19.9,18.2,19.9,18.2z M17.3,18.2H16      c-0.1,0-0.1,0-0.1-0.1c0-0.1,0-0.1,0.1-0.1h1.3C17.3,18,17.4,18.1,17.3,18.2C17.4,18.2,17.3,18.2,17.3,18.2z M14.7,18.2h-1.3      c-0.1,0-0.1,0-0.1-0.1c0-0.1,0-0.1,0.1-0.1h1.3C14.8,18,14.8,18.1,14.7,18.2C14.8,18.2,14.8,18.2,14.7,18.2z"/></g><g><path class="st11" d="M54.1,30C54.1,30,54,30,54.1,30c-0.1-0.1-0.1-0.2,0-0.2c0.2,0,0.4-0.1,0.5-0.1v-0.5c0-0.1,0-0.1,0.1-0.1      s0.1,0,0.1,0.1v0.6c0,0,0,0.1-0.1,0.1C54.5,29.9,54.3,30,54.1,30C54.1,30,54.1,30,54.1,30z"/></g><g><path class="st11" d="M47,36.3C47,36.3,47,36.3,47,36.3c-0.1,0-0.1-0.1-0.1-0.1c0.1-0.4,0.3-0.8,0.5-1.2c0,0,0.1-0.1,0.1,0      c0,0,0.1,0.1,0,0.1C47.4,35.5,47.2,35.8,47,36.3C47,36.3,47,36.3,47,36.3z M48.1,34.1C48.1,34.1,48,34.1,48.1,34.1      C48,34,48,34,48,33.9c0.2-0.3,0.5-0.7,0.8-1c0,0,0.1,0,0.1,0c0,0,0,0.1,0,0.1C48.6,33.4,48.4,33.7,48.1,34.1      C48.1,34.1,48.1,34.1,48.1,34.1z M49.7,32.2C49.7,32.2,49.7,32.2,49.7,32.2c-0.1-0.1-0.1-0.1-0.1-0.2c0.3-0.3,0.6-0.5,1-0.8      c0,0,0.1,0,0.1,0c0,0,0,0.1,0,0.1C50.4,31.7,50.1,31.9,49.7,32.2C49.8,32.2,49.7,32.2,49.7,32.2z M51.8,30.8      C51.7,30.8,51.7,30.8,51.8,30.8c-0.1-0.1-0.1-0.2,0-0.2c0.4-0.2,0.8-0.3,1.2-0.5c0.1,0,0.1,0,0.1,0.1c0,0,0,0.1-0.1,0.1      C52.6,30.5,52.2,30.6,51.8,30.8C51.8,30.8,51.8,30.8,51.8,30.8z"/></g><g><path class="st11" d="M46.5,38.1h-0.6c-0.1,0-0.1,0-0.1-0.1c0-0.1,0-0.1,0.1-0.1h0.5c0-0.2,0.1-0.4,0.1-0.5      c0-0.1,0.1-0.1,0.1-0.1c0.1,0,0.1,0.1,0.1,0.1C46.7,37.6,46.7,37.8,46.5,38.1C46.6,38.1,46.6,38.1,46.5,38.1z"/></g><g><path class="st11" d="M44.6,38.1h-1.3c-0.1,0-0.1,0-0.1-0.1c0-0.1,0-0.1,0.1-0.1h1.3C44.7,37.9,44.7,38,44.6,38.1      C44.7,38.1,44.7,38.1,44.6,38.1z M42.1,38.1h-1.3c-0.1,0-0.1,0-0.1-0.1c0-0.1,0-0.1,0.1-0.1h1.3C42.1,37.9,42.2,38,42.1,38.1      C42.2,38.1,42.1,38.1,42.1,38.1z M39.5,38.1h-1.3c-0.1,0-0.1,0-0.1-0.1c0-0.1,0-0.1,0.1-0.1h1.3C39.6,37.9,39.6,38,39.5,38.1      C39.6,38.1,39.6,38.1,39.5,38.1z"/></g></g></g></g></svg>