<?xml version="1.0" ?><!DOCTYPE svg  PUBLIC '-//W3C//DTD SVG 1.1//EN'  'http://www.w3.org/Graphics/SVG/1.1/DTD/svg11.dtd'><svg enable-background="new 0 0 32 32" version="1.1" viewBox="0 0 32 32" xml:space="preserve" xmlns="http://www.w3.org/2000/svg" xmlns:xlink="http://www.w3.org/1999/xlink"><g id="Files30"/><g id="Files29"/><g id="Files28"><g><path d="M27,6v24c0,0.55-0.45,1-1,1H6c-0.55,0-1-0.45-1-1v-5H2c-0.55,0-1-0.45-1-1V14c0-0.55,0.45-1,1-1h3V2    c0-0.55,0.45-1,1-1h16c0.27,0,0.52,0.11,0.71,0.29l4,4C26.89,5.48,27,5.73,27,6z" fill="#DA8541"/></g><g><path d="M26.707,5.293l-4-4C22.5195,1.1055,22.2656,1,22,1H6C5.4478,1,5,1.4473,5,2v11H2c-0.5522,0-1,0.4473-1,1    v10c0,0.5527,0.4478,1,1,1h3v5c0,0.5527,0.4478,1,1,1h20c0.5527,0,1-0.4473,1-1V6C27,5.7344,26.8945,5.4805,26.707,5.293z M3,15    h18v8H3V15z M25,29H7v-4h15c0.5527,0,1-0.4473,1-1V14c0-0.5527-0.4473-1-1-1H7V3h14.5859L25,6.4141V29z" fill="#FFB841"/><path d="M6.9297,17.3818h0.9492v3.1201c0,0.1777,0.041,0.3105,0.1221,0.3984s0.1855,0.1318,0.3145,0.1318    c0.127,0,0.2305-0.043,0.3105-0.1299s0.1201-0.2207,0.1201-0.4004v-3.1201h0.9492c0.1484,0,0.2598-0.0322,0.334-0.0977    s0.1113-0.1523,0.1113-0.2598s-0.0361-0.1943-0.1094-0.2607s-0.1855-0.0996-0.3359-0.0996H6.9297    c-0.1426,0-0.251,0.0322-0.3262,0.0967s-0.1133,0.1523-0.1133,0.2637c0,0.1074,0.0361,0.1943,0.1084,0.2598    S6.7813,17.3818,6.9297,17.3818z" fill="#FFB841"/><path d="M10.2842,20.6543c0,0.123,0.0352,0.2168,0.1045,0.2813s0.1563,0.0967,0.2617,0.0967    c0.0684,0,0.1279-0.0107,0.1787-0.0322s0.0947-0.0508,0.1318-0.0879s0.0693-0.0752,0.0957-0.1143s0.0703-0.1074,0.1328-0.2051    l0.8027-1.2246l0.7559,1.1895c0.0957,0.1465,0.1611,0.2451,0.1963,0.2959s0.0811,0.0938,0.1377,0.1279s0.126,0.0508,0.208,0.0508    c0.0762,0,0.1445-0.0166,0.2051-0.0498s0.1074-0.0781,0.1406-0.1348s0.0498-0.1191,0.0498-0.1875    c0-0.0723-0.0186-0.1484-0.0557-0.2295s-0.0967-0.1836-0.1787-0.3066L12.54,18.7207l0.8467-1.2656    c0.1504-0.2246,0.2256-0.4023,0.2256-0.5332c0-0.0898-0.0342-0.167-0.1035-0.2324s-0.1592-0.0986-0.2686-0.0986    c-0.0605,0-0.1133,0.0107-0.1592,0.0313s-0.0879,0.0508-0.125,0.0918s-0.0752,0.0928-0.1152,0.1553s-0.0889,0.1377-0.1455,0.2256    l-0.6885,1.043l-0.6445-1.043c-0.1191-0.1934-0.2119-0.3252-0.2793-0.3965s-0.1621-0.1074-0.2832-0.1074    c-0.1055,0-0.1943,0.0332-0.2676,0.0986s-0.1104,0.1387-0.1104,0.2207c0,0.0801,0.0195,0.1641,0.0576,0.251    s0.0947,0.1904,0.1709,0.3115l0.8086,1.248L10.498,20.124C10.3555,20.333,10.2842,20.5098,10.2842,20.6543z" fill="#FFB841"/><path d="M14.3037,17.3818h0.9492v3.1201c0,0.1777,0.041,0.3105,0.1221,0.3984s0.1855,0.1318,0.3145,0.1318    c0.127,0,0.2305-0.043,0.3105-0.1299s0.1201-0.2207,0.1201-0.4004v-3.1201h0.9492c0.1484,0,0.2598-0.0322,0.334-0.0977    s0.1113-0.1523,0.1113-0.2598s-0.0361-0.1943-0.1094-0.2607s-0.1855-0.0996-0.3359-0.0996h-2.7656    c-0.1426,0-0.251,0.0322-0.3262,0.0967s-0.1133,0.1523-0.1133,0.2637c0,0.1074,0.0361,0.1943,0.1084,0.2598    S14.1553,17.3818,14.3037,17.3818z" fill="#FFB841"/></g></g><g id="Files27"/><g id="Files26"/><g id="Files25"/><g id="Files24"/><g id="Files23"/><g id="Files22"/><g id="Files21"/><g id="Files20"/><g id="Files19"/><g id="Files18"/><g id="Files17"/><g id="Files16"/><g id="Files15"/><g id="Files14"/><g id="Files13"/><g id="Files12"/><g id="Files11"/><g id="Files10"/><g id="Files09"/><g id="Files08"/><g id="Files07"/><g id="Files06"/><g id="Files05"/><g id="Files04"/><g id="Files03"/><g id="Files02"/><g id="Files01"/></svg>